ffmpeg started on 2016-11-30 at 11:31:01
Report written to "Output/x264/results/ffmpeg/old_town_cross_2160p50faster15000k.log"
Command line:
Tools/ffmpeg/ffmpeg -benchmark -y -i Input/y4m/old_town_cross_2160p50.y4m -c:v libx264 -preset faster -b:v 15000k -an Output/x264/encoded/old_town_cross_2160p50faster15000k.mkv
ffmpeg version N-82227-gdb23fde Copyright (c) 2000-2016 the FFmpeg developers
  built with gcc 5.4.0 (Ubuntu 5.4.0-6ubuntu1~16.04.2) 20160609
  configuration: --prefix=/home/jaroslav/ffmpeg_build --pkg-config-flags=--static --extra-cflags=-I/home/jaroslav/ffmpeg_build/include --extra-ldflags=-L/home/jaroslav/ffmpeg_build/lib --bindir=/home/jaroslav/bin --enable-gpl --enable-libass --enable-libfdk-aac --enable-libfreetype --enable-libmp3lame --enable-libopus --enable-libtheora --enable-libvorbis --enable-libvpx --enable-libx264 --enable-libx265 --enable-nvenc --enable-libmfx --enable-libxvid --enable-libgsm --enable-libopencore-amrnb --enable-version3 --enable-nonfree
  libavutil      55. 35.100 / 55. 35.100
  libavcodec     57. 66.101 / 57. 66.101
  libavformat    57. 57.100 / 57. 57.100
  libavdevice    57.  2.100 / 57.  2.100
  libavfilter     6. 66.100 /  6. 66.100
  libswscale      4.  3.100 /  4.  3.100
  libswresample   2.  4.100 /  2.  4.100
  libpostproc    54.  2.100 / 54.  2.100
Input #0, yuv4mpegpipe, from 'Input/y4m/old_town_cross_2160p50.y4m':
  Duration: 00:00:10.00, start: 0.000000, bitrate: 4976642 kb/s
    Stream #0:0: Video: rawvideo (I420 / 0x30323449), yuv420p(progressive), 3840x2160, SAR 1:1 DAR 16:9, 50 fps, 50 tbr, 50 tbn, 50 tbc
[libx264 @ 0x278a120] using SAR=1/1
[libx264 @ 0x278a120] using cpu capabilities: MMX2 SSE2Fast SSSE3 SSE4.2 AVX FMA3 AVX2 LZCNT BMI2
[libx264 @ 0x278a120] profile High, level 5.2
[libx264 @ 0x278a120] 264 - core 148 - H.264/MPEG-4 AVC codec - Copyleft 2003-2016 - http://www.videolan.org/x264.html - options: cabac=1 ref=2 deblock=1:0:0 analyse=0x3:0x113 me=hex subme=4 psy=1 psy_rd=1.00:0.00 mixed_ref=0 me_range=16 chroma_me=1 trellis=1 8x8dct=1 cqm=0 deadzone=21,11 fast_pskip=1 chroma_qp_offset=0 threads=6 lookahead_threads=1 sliced_threads=0 nr=0 decimate=1 interlaced=0 bluray_compat=0 constrained_intra=0 bframes=3 b_pyramid=2 b_adapt=1 b_bias=0 direct=1 weightb=1 open_gop=0 weightp=1 keyint=250 keyint_min=25 scenecut=40 intra_refresh=0 rc_lookahead=20 rc=abr mbtree=1 bitrate=15000 ratetol=1.0 qcomp=0.60 qpmin=0 qpmax=69 qpstep=4 ip_ratio=1.40 aq=1:1.00
Output #0, matroska, to 'Output/x264/encoded/old_town_cross_2160p50faster15000k.mkv':
  Metadata:
    encoder         : Lavf57.57.100
    Stream #0:0: Video: h264 (libx264) (H264 / 0x34363248), yuv420p, 3840x2160 [SAR 1:1 DAR 16:9], q=-1--1, 15000 kb/s, 50 fps, 1k tbn, 50 tbc
    Metadata:
      encoder         : Lavc57.66.101 libx264
    Side data:
      cpb: bitrate max/min/avg: 0/0/15000000 buffer size: 0 vbv_delay: -1
Stream mapping:
  Stream #0:0 -> #0:0 (rawvideo (native) -> h264 (libx264))
Press [q] to stop, [?] for help
frame=   27 fps= 21 q=0.0 size=       0kB time=00:00:00.00 bitrate=N/A speed=   0x    frame=   33 fps= 18 q=30.0 size=       1kB time=00:00:00.00 bitrate=5864.0kbits/s speed=0.000536x    frame=   42 fps= 17 q=45.0 size=       1kB time=00:00:00.18 bitrate=  32.4kbits/s speed=0.0726x    frame=   52 fps= 17 q=45.0 size=       1kB time=00:00:00.38 bitrate=  15.4kbits/s speed=0.125x    frame=   64 fps= 17 q=41.0 size=       1kB time=00:00:00.62 bitrate=   9.4kbits/s speed=0.165x    frame=   75 fps= 18 q=38.0 size=       1kB time=00:00:00.84 bitrate=   7.0kbits/s speed=0.197x    frame=   84 fps= 17 q=37.0 size=       1kB time=00:00:01.02 bitrate=   5.7kbits/s speed=0.206x    frame=   95 fps= 17 q=35.0 size=       1kB time=00:00:01.24 bitrate=   4.7kbits/s speed=0.227x    frame=  104 fps= 17 q=35.0 size=       1kB time=00:00:01.42 bitrate=   4.1kbits/s speed=0.231x    frame=  115 fps= 17 q=33.0 size=       1kB time=00:00:01.64 bitrate=   3.6kbits/s speed=0.246x    frame=  124 fps= 17 q=33.0 size=       1kB time=00:00:01.82 bitrate=   3.2kbits/s speed=0.248x    frame=  135 fps= 17 q=33.0 size=       1kB time=00:00:02.04 bitrate=   2.9kbits/s speed=0.259x    frame=  143 fps= 17 q=32.0 size=       1kB time=00:00:02.20 bitrate=   2.7kbits/s speed=0.261x    frame=  151 fps= 17 q=32.0 size=       1kB time=00:00:02.36 bitrate=   2.5kbits/s speed=0.264x    frame=  158 fps= 17 q=32.0 size=       1kB time=00:00:02.50 bitrate=   2.3kbits/s speed=0.264x    frame=  167 fps= 17 q=32.0 size=       1kB time=00:00:02.68 bitrate=   2.2kbits/s speed=0.268x    frame=  176 fps= 17 q=32.0 size=       1kB time=00:00:02.86 bitrate=   2.0kbits/s speed=0.271x    frame=  185 fps= 17 q=32.0 size=    5190kB time=00:00:03.04 bitrate=13981.0kbits/s speed=0.275x    frame=  193 fps= 17 q=32.0 size=    5190kB time=00:00:03.20 bitrate=13282.2kbits/s speed=0.276x    frame=  201 fps= 17 q=32.0 size=    5190kB time=00:00:03.36 bitrate=12649.9kbits/s speed=0.278x    frame=  208 fps= 16 q=32.0 size=    5190kB time=00:00:03.50 bitrate=12144.0kbits/s speed=0.277x    frame=  217 fps= 17 q=32.0 size=    5190kB time=00:00:03.68 bitrate=11550.2kbits/s speed=0.28x    frame=  225 fps= 16 q=32.0 size=    5190kB time=00:00:03.84 bitrate=11069.0kbits/s speed=0.28x    frame=  234 fps= 16 q=32.0 size=    5190kB time=00:00:04.02 bitrate=10573.5kbits/s speed=0.281x    frame=  242 fps= 16 q=32.0 size=    5190kB time=00:00:04.18 bitrate=10168.9kbits/s speed=0.275x    frame=  245 fps= 15 q=32.0 size=    5190kB time=00:00:04.24 bitrate=10025.0kbits/s speed=0.265x    frame=  250 fps= 15 q=32.0 size=    5190kB time=00:00:04.34 bitrate=9794.1kbits/s speed=0.262x    frame=  255 fps= 15 q=33.0 size=    5190kB time=00:00:04.44 bitrate=9573.6kbits/s speed=0.259x    frame=  260 fps= 15 q=33.0 size=    5190kB time=00:00:04.54 bitrate=9362.7kbits/s speed=0.256x    frame=  265 fps= 14 q=33.0 size=    5190kB time=00:00:04.64 bitrate=9161.0kbits/s speed=0.254x    frame=  270 fps= 14 q=33.0 size=    5190kB time=00:00:04.74 bitrate=8967.8kbits/s speed=0.251x    frame=  275 fps= 14 q=30.0 size=    5190kB time=00:00:04.84 bitrate=8782.5kbits/s speed=0.249x    frame=  283 fps= 14 q=34.0 size=    9328kB time=00:00:05.00 bitrate=15280.0kbits/s speed=0.251x    frame=  292 fps= 14 q=34.0 size=    9328kB time=00:00:05.18 bitrate=14749.1kbits/s speed=0.253x    frame=  301 fps= 14 q=33.0 size=    9328kB time=00:00:05.36 bitrate=14253.9kbits/s speed=0.255x    frame=  311 fps= 14 q=33.0 size=    9328kB time=00:00:05.56 bitrate=13741.3kbits/s speed=0.257x    frame=  319 fps= 14 q=33.0 size=    9328kB time=00:00:05.72 bitrate=13357.0kbits/s speed=0.258x    frame=  327 fps= 14 q=33.0 size=    9328kB time=00:00:05.88 bitrate=12993.6kbits/s speed=0.259x    frame=  335 fps= 14 q=33.0 size=    9328kB time=00:00:06.04 bitrate=12649.4kbits/s speed=0.26x    frame=  344 fps= 14 q=33.0 size=    9328kB time=00:00:06.22 bitrate=12283.4kbits/s speed=0.262x    frame=  352 fps= 15 q=33.0 size=    9328kB time=00:00:06.38 bitrate=11975.4kbits/s speed=0.263x    frame=  360 fps= 15 q=33.0 size=    9328kB time=00:00:06.54 bitrate=11682.5kbits/s speed=0.264x    frame=  368 fps= 15 q=32.0 size=    9328kB time=00:00:06.70 bitrate=11403.6kbits/s speed=0.265x    frame=  376 fps= 15 q=32.0 size=    9328kB time=00:00:06.86 bitrate=11137.6kbits/s speed=0.266x    frame=  385 fps= 15 q=32.0 size=    9328kB time=00:00:07.04 bitrate=10852.9kbits/s speed=0.267x    frame=  394 fps= 15 q=32.0 size=    9328kB time=00:00:07.22 bitrate=10582.4kbits/s speed=0.269x    frame=  402 fps= 15 q=32.0 size=    9328kB time=00:00:07.38 bitrate=10353.0kbits/s speed=0.27x    frame=  410 fps= 15 q=32.0 size=    9328kB time=00:00:07.54 bitrate=10133.3kbits/s speed=0.27x    frame=  419 fps= 15 q=32.0 size=    9328kB time=00:00:07.72 bitrate=9897.1kbits/s speed=0.271x    frame=  427 fps= 15 q=32.0 size=    9328kB time=00:00:07.88 bitrate=9696.1kbits/s speed=0.271x    frame=  436 fps= 15 q=32.0 size=   14508kB time=00:00:08.06 bitrate=14743.8kbits/s speed=0.272x    frame=  445 fps= 15 q=32.0 size=   14508kB time=00:00:08.24 bitrate=14421.8kbits/s speed=0.273x    frame=  453 fps= 15 q=32.0 size=   14508kB time=00:00:08.40 bitrate=14147.1kbits/s speed=0.273x    frame=  461 fps= 15 q=32.0 size=   14508kB time=00:00:08.56 bitrate=13882.7kbits/s speed=0.274x    frame=  469 fps= 15 q=32.0 size=   14508kB time=00:00:08.72 bitrate=13628.0kbits/s speed=0.275x    frame=  476 fps= 15 q=32.0 size=   14508kB time=00:00:08.86 bitrate=13412.7kbits/s speed=0.274x    frame=  483 fps= 15 q=32.0 size=   14508kB time=00:00:09.00 bitrate=13204.1kbits/s speed=0.272x    frame=  486 fps= 14 q=32.0 size=   14508kB time=00:00:09.06 bitrate=13116.7kbits/s speed=0.267x    frame=  491 fps= 14 q=33.0 size=   14508kB time=00:00:09.16 bitrate=12973.5kbits/s speed=0.265x    frame=  496 fps= 14 q=33.0 size=   14508kB time=00:00:09.26 bitrate=12833.4kbits/s speed=0.264x    frame=  500 fps= 14 q=33.0 size=   14508kB time=00:00:09.34 bitrate=12723.5kbits/s speed=0.262x    frame=  500 fps= 13 q=-1.0 Lsize=   18863kB time=00:00:09.94 bitrate=15544.3kbits/s speed=0.268x    
video:18858kB audio:0kB subtitle:0kB other streams:0kB global headers:0kB muxing overhead: 0.024877%
bench: utime=122.392s
bench: maxrss=1349064kB
[libx264 @ 0x278a120] frame I:3     Avg QP:27.79  size:626788
[libx264 @ 0x278a120] frame P:183   Avg QP:31.30  size: 60153
[libx264 @ 0x278a120] frame B:314   Avg QP:33.42  size: 20451
[libx264 @ 0x278a120] consecutive B-frames: 16.0%  0.8%  0.0% 83.2%
[libx264 @ 0x278a120] mb I  I16..4: 26.1% 52.8% 21.1%
[libx264 @ 0x278a120] mb P  I16..4:  4.3%  4.1%  0.0%  P16..4: 30.3%  4.2%  0.6%  0.0%  0.0%    skip:56.5%
[libx264 @ 0x278a120] mb B  I16..4:  0.9%  0.8%  0.0%  B16..8: 14.5%  0.6%  0.0%  direct:11.8%  skip:71.4%  L0:38.6% L1:60.0% BI: 1.4%
[libx264 @ 0x278a120] final ratefactor: 24.88
[libx264 @ 0x278a120] 8x8 transform intra:49.1% inter:59.3%
[libx264 @ 0x278a120] coded y,uvDC,uvAC intra: 55.1% 47.9% 26.1% inter: 7.6% 5.8% 0.0%
[libx264 @ 0x278a120] i16 v,h,dc,p: 31% 24% 36%  9%
[libx264 @ 0x278a120] i8 v,h,dc,ddl,ddr,vr,hd,vl,hu:  8% 12% 59%  4%  3%  3%  4%  3%  4%
[libx264 @ 0x278a120] i4 v,h,dc,ddl,ddr,vr,hd,vl,hu: 15% 24% 12%  7%  7%  7% 11%  7% 10%
[libx264 @ 0x278a120] i8c dc,h,v,p: 71% 14% 14%  1%
[libx264 @ 0x278a120] Weighted P-Frames: Y:0.5% UV:0.0%
[libx264 @ 0x278a120] ref P L0: 66.8% 33.2%
[libx264 @ 0x278a120] ref B L0: 85.0% 15.0%
[libx264 @ 0x278a120] ref B L1: 94.9%  5.1%
[libx264 @ 0x278a120] kb/s:15448.17
